<mxfile host="app.diagrams.net" modified="2023-06-04T22:04:54.130Z" agent="Mozilla/5.0 (Windows NT 10.0; Win64; x64) AppleWebKit/537.36 (KHTML, like Gecko) Chrome/114.0.0.0 Safari/537.36" etag="1WYSwnoIoSBsqvD7ggXx" version="21.3.7" type="device">
  <diagram name="Страница 1" id="QwgWw719od37ShDcFggL">
    <mxGraphModel dx="1434" dy="749" grid="1" gridSize="10" guides="1" tooltips="1" connect="1" arrows="1" fold="1" page="1" pageScale="1" pageWidth="827" pageHeight="1169" math="0" shadow="0">
      <root>
        <mxCell id="0" />
        <mxCell id="1" parent="0" />
        <mxCell id="DYsotzT4l1oYbgpdPDOD-1" value="" style="shape=curlyBracket;whiteSpace=wrap;html=1;rounded=1;labelPosition=left;verticalLabelPosition=middle;align=right;verticalAlign=middle;" parent="1" vertex="1">
          <mxGeometry x="230" y="360" width="20" height="710" as="geometry" />
        </mxCell>
        <UserObject label="Сайт интернет магазин по продаже запчастей для мобильных&amp;nbsp;телефонов" placeholders="1" name="Variable" id="DYsotzT4l1oYbgpdPDOD-2">
          <mxCell style="text;html=1;strokeColor=none;fillColor=none;align=center;verticalAlign=middle;whiteSpace=wrap;overflow=hidden;rotation=270;" parent="1" vertex="1">
            <mxGeometry x="-10.62" y="703.13" width="441.25" height="20" as="geometry" />
          </mxCell>
        </UserObject>
        <UserObject label="обработка товаров" placeholders="1" name="Variable" id="DYsotzT4l1oYbgpdPDOD-3">
          <mxCell style="text;html=1;strokeColor=none;fillColor=none;align=center;verticalAlign=middle;whiteSpace=wrap;overflow=hidden;rotation=270;" parent="1" vertex="1">
            <mxGeometry x="230" y="875" width="120" height="20" as="geometry" />
          </mxCell>
        </UserObject>
        <mxCell id="DYsotzT4l1oYbgpdPDOD-5" value="" style="shape=curlyBracket;whiteSpace=wrap;html=1;rounded=1;labelPosition=left;verticalLabelPosition=middle;align=right;verticalAlign=middle;" parent="1" vertex="1">
          <mxGeometry x="310" y="410" width="20" height="120" as="geometry" />
        </mxCell>
        <mxCell id="DYsotzT4l1oYbgpdPDOD-6" value="" style="endArrow=classic;html=1;rounded=0;fontStyle=1;exitX=0.012;exitY=0.613;exitDx=0;exitDy=0;exitPerimeter=0;" parent="1" source="DYsotzT4l1oYbgpdPDOD-18" edge="1">
          <mxGeometry width="50" height="50" relative="1" as="geometry">
            <mxPoint x="700" y="430" as="sourcePoint" />
            <mxPoint x="490" y="430" as="targetPoint" />
          </mxGeometry>
        </mxCell>
        <UserObject label="вход" placeholders="1" name="Variable" id="DYsotzT4l1oYbgpdPDOD-7">
          <mxCell style="text;html=1;strokeColor=none;fillColor=none;align=center;verticalAlign=middle;whiteSpace=wrap;overflow=hidden;rotation=0;" parent="1" vertex="1">
            <mxGeometry x="320" y="420" width="60" height="20" as="geometry" />
          </mxCell>
        </UserObject>
        <UserObject label="выход" placeholders="1" name="Variable" id="DYsotzT4l1oYbgpdPDOD-9">
          <mxCell style="text;html=1;strokeColor=none;fillColor=none;align=center;verticalAlign=middle;whiteSpace=wrap;overflow=hidden;rotation=0;" parent="1" vertex="1">
            <mxGeometry x="320" y="490" width="60" height="20" as="geometry" />
          </mxCell>
        </UserObject>
        <mxCell id="DYsotzT4l1oYbgpdPDOD-18" value="" style="shape=manualInput;whiteSpace=wrap;html=1;rotation=0;size=13;" parent="1" vertex="1">
          <mxGeometry x="720" y="400" width="80" height="50" as="geometry" />
        </mxCell>
        <UserObject label="аутентификация администратора" placeholders="1" name="Variable" id="DYsotzT4l1oYbgpdPDOD-19">
          <mxCell style="text;html=1;strokeColor=none;fillColor=none;align=center;verticalAlign=middle;whiteSpace=wrap;overflow=hidden;rotation=270;" parent="1" vertex="1">
            <mxGeometry x="225" y="455" width="100" height="30" as="geometry" />
          </mxCell>
        </UserObject>
        <mxCell id="DYsotzT4l1oYbgpdPDOD-20" value="" style="endArrow=classic;html=1;rounded=0;" parent="1" edge="1">
          <mxGeometry width="50" height="50" relative="1" as="geometry">
            <mxPoint x="480" y="499.79999999999995" as="sourcePoint" />
            <mxPoint x="680" y="500.09" as="targetPoint" />
          </mxGeometry>
        </mxCell>
        <mxCell id="dDb404YOOiGicoCLXhCm-1" value="" style="shape=curlyBracket;whiteSpace=wrap;html=1;rounded=1;labelPosition=left;verticalLabelPosition=middle;align=right;verticalAlign=middle;" parent="1" vertex="1">
          <mxGeometry x="310" y="570" width="20" height="120" as="geometry" />
        </mxCell>
        <UserObject label="вход" placeholders="1" name="Variable" id="dDb404YOOiGicoCLXhCm-3">
          <mxCell style="text;html=1;strokeColor=none;fillColor=none;align=center;verticalAlign=middle;whiteSpace=wrap;overflow=hidden;rotation=0;" parent="1" vertex="1">
            <mxGeometry x="320" y="585" width="60" height="20" as="geometry" />
          </mxCell>
        </UserObject>
        <UserObject label="выход" placeholders="1" name="Variable" id="dDb404YOOiGicoCLXhCm-4">
          <mxCell style="text;html=1;strokeColor=none;fillColor=none;align=center;verticalAlign=middle;whiteSpace=wrap;overflow=hidden;rotation=0;" parent="1" vertex="1">
            <mxGeometry x="320" y="660" width="60" height="20" as="geometry" />
          </mxCell>
        </UserObject>
        <mxCell id="dDb404YOOiGicoCLXhCm-5" value="" style="shape=curlyBracket;whiteSpace=wrap;html=1;rounded=1;labelPosition=left;verticalLabelPosition=middle;align=right;verticalAlign=middle;" parent="1" vertex="1">
          <mxGeometry x="380" y="410" width="20" height="110" as="geometry" />
        </mxCell>
        <UserObject label="данные администратора" placeholders="1" name="Variable" id="dDb404YOOiGicoCLXhCm-6">
          <mxCell style="text;html=1;strokeColor=none;fillColor=none;align=center;verticalAlign=middle;whiteSpace=wrap;overflow=hidden;rotation=0;" parent="1" vertex="1">
            <mxGeometry x="390" y="410" width="100" height="40" as="geometry" />
          </mxCell>
        </UserObject>
        <UserObject label="вывод товаров" placeholders="1" name="Variable" id="dDb404YOOiGicoCLXhCm-7">
          <mxCell style="text;html=1;strokeColor=none;fillColor=none;align=center;verticalAlign=middle;whiteSpace=wrap;overflow=hidden;rotation=270;" parent="1" vertex="1">
            <mxGeometry x="230" y="620" width="120" height="20" as="geometry" />
          </mxCell>
        </UserObject>
        <mxCell id="dDb404YOOiGicoCLXhCm-8" value="" style="shape=curlyBracket;whiteSpace=wrap;html=1;rounded=1;labelPosition=left;verticalLabelPosition=middle;align=right;verticalAlign=middle;" parent="1" vertex="1">
          <mxGeometry x="310" y="710" width="20" height="350" as="geometry" />
        </mxCell>
        <mxCell id="dDb404YOOiGicoCLXhCm-9" value="заполнение товаров" style="text;html=1;strokeColor=none;fillColor=none;align=center;verticalAlign=middle;whiteSpace=wrap;rounded=0;" parent="1" vertex="1">
          <mxGeometry x="330" y="760" width="80" height="30" as="geometry" />
        </mxCell>
        <mxCell id="dDb404YOOiGicoCLXhCm-10" value="формирование интерфейса" style="text;html=1;strokeColor=none;fillColor=none;align=center;verticalAlign=middle;whiteSpace=wrap;rounded=0;" parent="1" vertex="1">
          <mxGeometry x="334" y="872.5" width="80" height="30" as="geometry" />
        </mxCell>
        <mxCell id="dDb404YOOiGicoCLXhCm-11" value="сохранение товаров корзины" style="text;html=1;strokeColor=none;fillColor=none;align=center;verticalAlign=middle;whiteSpace=wrap;rounded=0;" parent="1" vertex="1">
          <mxGeometry x="340" y="993.75" width="80" height="30" as="geometry" />
        </mxCell>
        <UserObject label="успешная авторизация" placeholders="1" name="Variable" id="dDb404YOOiGicoCLXhCm-12">
          <mxCell style="text;html=1;strokeColor=none;fillColor=none;align=center;verticalAlign=middle;whiteSpace=wrap;overflow=hidden;rotation=0;" parent="1" vertex="1">
            <mxGeometry x="390" y="470" width="90" height="50" as="geometry" />
          </mxCell>
        </UserObject>
        <mxCell id="dDb404YOOiGicoCLXhCm-13" value="" style="shape=curlyBracket;whiteSpace=wrap;html=1;rounded=1;labelPosition=left;verticalLabelPosition=middle;align=right;verticalAlign=middle;" parent="1" vertex="1">
          <mxGeometry x="390" y="570" width="20" height="110" as="geometry" />
        </mxCell>
        <UserObject label="ввод товаров" placeholders="1" name="Variable" id="dDb404YOOiGicoCLXhCm-16">
          <mxCell style="text;html=1;strokeColor=none;fillColor=none;align=center;verticalAlign=middle;whiteSpace=wrap;overflow=hidden;rotation=0;" parent="1" vertex="1">
            <mxGeometry x="400" y="575" width="90" height="40" as="geometry" />
          </mxCell>
        </UserObject>
        <mxCell id="dDb404YOOiGicoCLXhCm-17" value="" style="endArrow=classic;html=1;rounded=0;entryX=1;entryY=0.5;entryDx=0;entryDy=0;exitX=0.01;exitY=0.628;exitDx=0;exitDy=0;exitPerimeter=0;" parent="1" source="dDb404YOOiGicoCLXhCm-18" target="dDb404YOOiGicoCLXhCm-16" edge="1">
          <mxGeometry width="50" height="50" relative="1" as="geometry">
            <mxPoint x="690" y="599.5" as="sourcePoint" />
            <mxPoint x="510" y="599.5" as="targetPoint" />
          </mxGeometry>
        </mxCell>
        <mxCell id="dDb404YOOiGicoCLXhCm-18" value="" style="shape=manualInput;whiteSpace=wrap;html=1;rotation=0;size=13;" parent="1" vertex="1">
          <mxGeometry x="730" y="565" width="80" height="50" as="geometry" />
        </mxCell>
        <UserObject label="товары" placeholders="1" name="Variable" id="dDb404YOOiGicoCLXhCm-19">
          <mxCell style="text;html=1;strokeColor=none;fillColor=none;align=center;verticalAlign=middle;whiteSpace=wrap;overflow=hidden;rotation=0;" parent="1" vertex="1">
            <mxGeometry x="395" y="650" width="90" height="40" as="geometry" />
          </mxCell>
        </UserObject>
        <mxCell id="dDb404YOOiGicoCLXhCm-21" value="" style="shape=curlyBracket;whiteSpace=wrap;html=1;rounded=1;labelPosition=left;verticalLabelPosition=middle;align=right;verticalAlign=middle;" parent="1" vertex="1">
          <mxGeometry x="430" y="967.5" width="20" height="82.5" as="geometry" />
        </mxCell>
        <UserObject label="вход" placeholders="1" name="Variable" id="dDb404YOOiGicoCLXhCm-22">
          <mxCell style="text;html=1;strokeColor=none;fillColor=none;align=center;verticalAlign=middle;whiteSpace=wrap;overflow=hidden;rotation=0;" parent="1" vertex="1">
            <mxGeometry x="450" y="967.5" width="60" height="20" as="geometry" />
          </mxCell>
        </UserObject>
        <UserObject label="выход" placeholders="1" name="Variable" id="dDb404YOOiGicoCLXhCm-23">
          <mxCell style="text;html=1;strokeColor=none;fillColor=none;align=center;verticalAlign=middle;whiteSpace=wrap;overflow=hidden;rotation=0;" parent="1" vertex="1">
            <mxGeometry x="450" y="1030" width="60" height="20" as="geometry" />
          </mxCell>
        </UserObject>
        <mxCell id="dDb404YOOiGicoCLXhCm-31" value="" style="shape=curlyBracket;whiteSpace=wrap;html=1;rounded=1;labelPosition=left;verticalLabelPosition=middle;align=right;verticalAlign=middle;" parent="1" vertex="1">
          <mxGeometry x="420" y="846.25" width="20" height="82.5" as="geometry" />
        </mxCell>
        <UserObject label="вход" placeholders="1" name="Variable" id="dDb404YOOiGicoCLXhCm-32">
          <mxCell style="text;html=1;strokeColor=none;fillColor=none;align=center;verticalAlign=middle;whiteSpace=wrap;overflow=hidden;rotation=0;" parent="1" vertex="1">
            <mxGeometry x="440" y="846.25" width="60" height="20" as="geometry" />
          </mxCell>
        </UserObject>
        <UserObject label="выход" placeholders="1" name="Variable" id="dDb404YOOiGicoCLXhCm-33">
          <mxCell style="text;html=1;strokeColor=none;fillColor=none;align=center;verticalAlign=middle;whiteSpace=wrap;overflow=hidden;rotation=0;" parent="1" vertex="1">
            <mxGeometry x="440" y="908.75" width="60" height="20" as="geometry" />
          </mxCell>
        </UserObject>
        <mxCell id="dDb404YOOiGicoCLXhCm-34" value="" style="shape=curlyBracket;whiteSpace=wrap;html=1;rounded=1;labelPosition=left;verticalLabelPosition=middle;align=right;verticalAlign=middle;" parent="1" vertex="1">
          <mxGeometry x="420" y="733.75" width="20" height="82.5" as="geometry" />
        </mxCell>
        <UserObject label="вход" placeholders="1" name="Variable" id="dDb404YOOiGicoCLXhCm-35">
          <mxCell style="text;html=1;strokeColor=none;fillColor=none;align=center;verticalAlign=middle;whiteSpace=wrap;overflow=hidden;rotation=0;" parent="1" vertex="1">
            <mxGeometry x="440" y="733.75" width="60" height="20" as="geometry" />
          </mxCell>
        </UserObject>
        <UserObject label="выход" placeholders="1" name="Variable" id="dDb404YOOiGicoCLXhCm-36">
          <mxCell style="text;html=1;strokeColor=none;fillColor=none;align=center;verticalAlign=middle;whiteSpace=wrap;overflow=hidden;rotation=0;" parent="1" vertex="1">
            <mxGeometry x="440" y="796.25" width="60" height="20" as="geometry" />
          </mxCell>
        </UserObject>
        <mxCell id="dDb404YOOiGicoCLXhCm-37" value="" style="endArrow=none;html=1;rounded=0;" parent="1" source="dDb404YOOiGicoCLXhCm-53" edge="1">
          <mxGeometry width="50" height="50" relative="1" as="geometry">
            <mxPoint x="680" y="1040" as="sourcePoint" />
            <mxPoint x="680" y="500" as="targetPoint" />
          </mxGeometry>
        </mxCell>
        <mxCell id="dDb404YOOiGicoCLXhCm-39" value="" style="endArrow=classic;html=1;rounded=0;" parent="1" target="dDb404YOOiGicoCLXhCm-80" edge="1">
          <mxGeometry width="50" height="50" relative="1" as="geometry">
            <mxPoint x="590" y="1009.71" as="sourcePoint" />
            <mxPoint x="680" y="1010" as="targetPoint" />
          </mxGeometry>
        </mxCell>
        <mxCell id="dDb404YOOiGicoCLXhCm-41" value="" style="shape=display;whiteSpace=wrap;html=1;" parent="1" vertex="1">
          <mxGeometry x="730" y="645" width="80" height="45" as="geometry" />
        </mxCell>
        <UserObject label="сохранение в БД" placeholders="1" name="Variable" id="dDb404YOOiGicoCLXhCm-42">
          <mxCell style="text;html=1;strokeColor=none;fillColor=none;align=center;verticalAlign=middle;whiteSpace=wrap;overflow=hidden;rotation=0;" parent="1" vertex="1">
            <mxGeometry x="515" y="990" width="75" height="40" as="geometry" />
          </mxCell>
        </UserObject>
        <mxCell id="dDb404YOOiGicoCLXhCm-43" value="" style="endArrow=classic;html=1;rounded=0;exitX=1;exitY=0.5;exitDx=0;exitDy=0;entryX=0;entryY=0.5;entryDx=0;entryDy=0;entryPerimeter=0;" parent="1" source="dDb404YOOiGicoCLXhCm-19" target="dDb404YOOiGicoCLXhCm-41" edge="1">
          <mxGeometry width="50" height="50" relative="1" as="geometry">
            <mxPoint x="560" y="710" as="sourcePoint" />
            <mxPoint x="710" y="668" as="targetPoint" />
          </mxGeometry>
        </mxCell>
        <mxCell id="dDb404YOOiGicoCLXhCm-47" value="" style="shape=cylinder3;whiteSpace=wrap;html=1;boundedLbl=1;backgroundOutline=1;size=15;" parent="1" vertex="1">
          <mxGeometry x="750" y="791" width="60" height="60" as="geometry" />
        </mxCell>
        <mxCell id="dDb404YOOiGicoCLXhCm-48" value="" style="endArrow=classic;html=1;rounded=0;" parent="1" edge="1">
          <mxGeometry width="50" height="50" relative="1" as="geometry">
            <mxPoint x="680" y="816.25" as="sourcePoint" />
            <mxPoint x="750" y="816.25" as="targetPoint" />
          </mxGeometry>
        </mxCell>
        <mxCell id="dDb404YOOiGicoCLXhCm-49" value="" style="shape=curlyBracket;whiteSpace=wrap;html=1;rounded=1;labelPosition=left;verticalLabelPosition=middle;align=right;verticalAlign=middle;" parent="1" vertex="1">
          <mxGeometry x="500" y="722.5" width="20" height="77.5" as="geometry" />
        </mxCell>
        <UserObject label="создание товара" placeholders="1" name="Variable" id="dDb404YOOiGicoCLXhCm-50">
          <mxCell style="text;html=1;strokeColor=none;fillColor=none;align=center;verticalAlign=middle;whiteSpace=wrap;overflow=hidden;rotation=0;" parent="1" vertex="1">
            <mxGeometry x="510" y="728.75" width="70" height="30" as="geometry" />
          </mxCell>
        </UserObject>
        <mxCell id="dDb404YOOiGicoCLXhCm-54" value="" style="endArrow=none;html=1;rounded=0;" parent="1" target="dDb404YOOiGicoCLXhCm-53" edge="1">
          <mxGeometry width="50" height="50" relative="1" as="geometry">
            <mxPoint x="680" y="826.25" as="sourcePoint" />
            <mxPoint x="680" y="500" as="targetPoint" />
          </mxGeometry>
        </mxCell>
        <mxCell id="dDb404YOOiGicoCLXhCm-53" value="" style="shape=waypoint;sketch=0;fillStyle=solid;size=6;pointerEvents=1;points=[];fillColor=none;resizable=0;rotatable=0;perimeter=centerPerimeter;snapToPoint=1;" parent="1" vertex="1">
          <mxGeometry x="670" y="490" width="20" height="20" as="geometry" />
        </mxCell>
        <mxCell id="dDb404YOOiGicoCLXhCm-59" value="" style="endArrow=none;html=1;rounded=0;" parent="1" edge="1">
          <mxGeometry width="50" height="50" relative="1" as="geometry">
            <mxPoint x="680" y="1040" as="sourcePoint" />
            <mxPoint x="680" y="826.25" as="targetPoint" />
          </mxGeometry>
        </mxCell>
        <mxCell id="dDb404YOOiGicoCLXhCm-60" value="" style="shape=manualInput;whiteSpace=wrap;html=1;rotation=0;size=13;" parent="1" vertex="1">
          <mxGeometry x="730" y="710" width="80" height="50" as="geometry" />
        </mxCell>
        <mxCell id="dDb404YOOiGicoCLXhCm-62" value="" style="endArrow=classic;html=1;rounded=0;entryX=1;entryY=0.5;entryDx=0;entryDy=0;exitX=0.01;exitY=0.666;exitDx=0;exitDy=0;exitPerimeter=0;" parent="1" source="dDb404YOOiGicoCLXhCm-60" target="dDb404YOOiGicoCLXhCm-50" edge="1">
          <mxGeometry width="50" height="50" relative="1" as="geometry">
            <mxPoint x="700" y="744" as="sourcePoint" />
            <mxPoint x="720" y="750" as="targetPoint" />
          </mxGeometry>
        </mxCell>
        <UserObject label="сохранение товара" placeholders="1" name="Variable" id="dDb404YOOiGicoCLXhCm-63">
          <mxCell style="text;html=1;strokeColor=none;fillColor=none;align=center;verticalAlign=middle;whiteSpace=wrap;overflow=hidden;rotation=0;" parent="1" vertex="1">
            <mxGeometry x="510" y="766.25" width="70" height="30" as="geometry" />
          </mxCell>
        </UserObject>
        <mxCell id="dDb404YOOiGicoCLXhCm-64" value="" style="endArrow=classic;html=1;rounded=0;exitX=1;exitY=0.5;exitDx=0;exitDy=0;" parent="1" source="dDb404YOOiGicoCLXhCm-63" target="dDb404YOOiGicoCLXhCm-79" edge="1">
          <mxGeometry width="50" height="50" relative="1" as="geometry">
            <mxPoint x="630" y="850" as="sourcePoint" />
            <mxPoint x="680" y="781" as="targetPoint" />
          </mxGeometry>
        </mxCell>
        <mxCell id="dDb404YOOiGicoCLXhCm-65" value="" style="shape=manualInput;whiteSpace=wrap;html=1;rotation=0;size=13;" parent="1" vertex="1">
          <mxGeometry x="730" y="866.25" width="80" height="50" as="geometry" />
        </mxCell>
        <mxCell id="dDb404YOOiGicoCLXhCm-66" value="" style="shape=curlyBracket;whiteSpace=wrap;html=1;rounded=1;labelPosition=left;verticalLabelPosition=middle;align=right;verticalAlign=middle;" parent="1" vertex="1">
          <mxGeometry x="500" y="840" width="20" height="73.75" as="geometry" />
        </mxCell>
        <UserObject label="изменение интерфейса" placeholders="1" name="Variable" id="dDb404YOOiGicoCLXhCm-67">
          <mxCell style="text;html=1;strokeColor=none;fillColor=none;align=center;verticalAlign=middle;whiteSpace=wrap;overflow=hidden;rotation=0;" parent="1" vertex="1">
            <mxGeometry x="510" y="842.5" width="70" height="30" as="geometry" />
          </mxCell>
        </UserObject>
        <UserObject label="сохранение изменений" placeholders="1" name="Variable" id="dDb404YOOiGicoCLXhCm-68">
          <mxCell style="text;html=1;strokeColor=none;fillColor=none;align=center;verticalAlign=middle;whiteSpace=wrap;overflow=hidden;rotation=0;" parent="1" vertex="1">
            <mxGeometry x="510" y="883.75" width="70" height="30" as="geometry" />
          </mxCell>
        </UserObject>
        <mxCell id="dDb404YOOiGicoCLXhCm-74" value="" style="edgeStyle=elbowEdgeStyle;elbow=horizontal;endArrow=classic;html=1;curved=0;rounded=0;endSize=8;startSize=8;exitX=0;exitY=0.675;exitDx=0;exitDy=0;exitPerimeter=0;" parent="1" source="dDb404YOOiGicoCLXhCm-65" edge="1">
          <mxGeometry width="50" height="50" relative="1" as="geometry">
            <mxPoint x="630" y="930" as="sourcePoint" />
            <mxPoint x="590" y="860" as="targetPoint" />
          </mxGeometry>
        </mxCell>
        <mxCell id="dDb404YOOiGicoCLXhCm-75" value="" style="edgeStyle=elbowEdgeStyle;elbow=horizontal;endArrow=classic;html=1;curved=0;rounded=0;endSize=8;startSize=8;" parent="1" target="dDb404YOOiGicoCLXhCm-81" edge="1">
          <mxGeometry width="50" height="50" relative="1" as="geometry">
            <mxPoint x="590" y="900" as="sourcePoint" />
            <mxPoint x="680" y="920" as="targetPoint" />
          </mxGeometry>
        </mxCell>
        <mxCell id="dDb404YOOiGicoCLXhCm-76" value="" style="shape=curlyBracket;whiteSpace=wrap;html=1;rounded=1;labelPosition=left;verticalLabelPosition=middle;align=right;verticalAlign=middle;" parent="1" vertex="1">
          <mxGeometry x="500" y="952.5" width="20" height="77.5" as="geometry" />
        </mxCell>
        <mxCell id="dDb404YOOiGicoCLXhCm-79" value="" style="shape=waypoint;sketch=0;fillStyle=solid;size=6;pointerEvents=1;points=[];fillColor=none;resizable=0;rotatable=0;perimeter=centerPerimeter;snapToPoint=1;" parent="1" vertex="1">
          <mxGeometry x="670" y="771" width="20" height="20" as="geometry" />
        </mxCell>
        <mxCell id="dDb404YOOiGicoCLXhCm-80" value="" style="shape=waypoint;sketch=0;fillStyle=solid;size=6;pointerEvents=1;points=[];fillColor=none;resizable=0;rotatable=0;perimeter=centerPerimeter;snapToPoint=1;" parent="1" vertex="1">
          <mxGeometry x="670" y="1000" width="20" height="20" as="geometry" />
        </mxCell>
        <mxCell id="dDb404YOOiGicoCLXhCm-81" value="" style="shape=waypoint;sketch=0;fillStyle=solid;size=6;pointerEvents=1;points=[];fillColor=none;resizable=0;rotatable=0;perimeter=centerPerimeter;snapToPoint=1;" parent="1" vertex="1">
          <mxGeometry x="670" y="910" width="20" height="20" as="geometry" />
        </mxCell>
        <UserObject label="товары в корзине" placeholders="1" name="Variable" id="dDb404YOOiGicoCLXhCm-82">
          <mxCell style="text;html=1;strokeColor=none;fillColor=none;align=center;verticalAlign=middle;whiteSpace=wrap;overflow=hidden;rotation=0;" parent="1" vertex="1">
            <mxGeometry x="515" y="953.75" width="85" height="40" as="geometry" />
          </mxCell>
        </UserObject>
        <mxCell id="dDb404YOOiGicoCLXhCm-83" value="" style="shape=manualInput;whiteSpace=wrap;html=1;rotation=0;size=13;" parent="1" vertex="1">
          <mxGeometry x="730" y="943.75" width="80" height="50" as="geometry" />
        </mxCell>
        <mxCell id="dDb404YOOiGicoCLXhCm-84" value="" style="endArrow=classic;html=1;rounded=0;entryX=1;entryY=0.5;entryDx=0;entryDy=0;exitX=0;exitY=0.6;exitDx=0;exitDy=0;exitPerimeter=0;" parent="1" source="dDb404YOOiGicoCLXhCm-83" target="dDb404YOOiGicoCLXhCm-82" edge="1">
          <mxGeometry width="50" height="50" relative="1" as="geometry">
            <mxPoint x="720" y="974" as="sourcePoint" />
            <mxPoint x="670" y="960" as="targetPoint" />
          </mxGeometry>
        </mxCell>
        <mxCell id="dDb404YOOiGicoCLXhCm-88" value="" style="endArrow=classic;html=1;rounded=0;" parent="1" edge="1">
          <mxGeometry width="50" height="50" relative="1" as="geometry">
            <mxPoint x="750" y="839" as="sourcePoint" />
            <mxPoint x="680" y="839.43" as="targetPoint" />
          </mxGeometry>
        </mxCell>
      </root>
    </mxGraphModel>
  </diagram>
</mxfile>
